<svg xmlns="http://www.w3.org/2000/svg" viewBox="0 0 800 520" fill="none" role="img" aria-label="+I2 2)5 mockup">
  <defs>
    <linearGradient id="bg3" x1="0" y1="0" x2="800" y2="520" gradientUnits="userSpaceOnUse">
      <stop stop-color="#f8fafc"/>
      <stop offset="1" stop-color="#ecfdf5"/>
    </linearGradient>
    <linearGradient id="accent3" x1="0" y1="0" x2="1" y2="1">
      <stop stop-color="#059669"/>
      <stop offset="1" stop-color="#6366f1"/>
    </linearGradient>
  </defs>
  <rect width="800" height="520" fill="url(#bg3)"/>
  <rect x="40" y="40" width="720" height="64" rx="16" fill="#fff" stroke="#e2e8f0"/>
  <rect x="64" y="64" width="180" height="16" rx="4" fill="#1e293b"/>
  <rect x="600" y="58" width="120" height="28" rx="14" fill="url(#accent3)" opacity="0.15"/>
  <rect x="40" y="124" width="220" height="160" rx="16" fill="#fff" stroke="#e2e8f0"/>
  <rect x="60" y="144" width="80" height="10" rx="3" fill="#64748b"/>
  <rect x="60" y="168" width="100" height="28" rx="6" fill="url(#accent3)" opacity="0.8"/>
  <rect x="280" y="124" width="220" height="160" rx="16" fill="#fff" stroke="#e2e8f0"/>
  <rect x="300" y="144" width="90" height="10" rx="3" fill="#64748b"/>
  <rect x="300" y="168" width="80" height="28" rx="6" fill="#6366f1" opacity="0.25"/>
  <rect x="520" y="124" width="240" height="160" rx="16" fill="#fff" stroke="#e2e8f0"/>
  <rect x="540" y="144" width="100" height="10" rx="3" fill="#64748b"/>
  <rect x="540" y="168" width="70" height="28" rx="6" fill="#059669" opacity="0.2"/>
  <rect x="40" y="304" width="720" height="176" rx="16" fill="#fff" stroke="#e2e8f0"/>
  <rect x="60" y="324" width="140" height="12" rx="4" fill="#1e293b"/>
  <rect x="60" y="356" width="680" height="12" rx="4" fill="#f1f5f9"/>
  <rect x="60" y="380" width="620" height="12" rx="4" fill="#f1f5f9"/>
  <rect x="60" y="404" width="560" height="12" rx="4" fill="#f1f5f9"/>
  <rect x="60" y="440" width="200" height="24" rx="6" fill="url(#accent3)" opacity="0.15"/>
</svg>
