<svg xmlns="http://www.w3.org/2000/svg" viewBox="0 0 800 520" fill="none" role="img" aria-label="So1o Dashboard mockup">
  <defs>
    <linearGradient id="bg" x1="0" y1="0" x2="800" y2="520" gradientUnits="userSpaceOnUse">
      <stop stop-color="#f8fafc"/>
      <stop offset="1" stop-color="#eef2ff"/>
    </linearGradient>
    <linearGradient id="accent" x1="0" y1="0" x2="1" y2="1">
      <stop stop-color="#6366f1"/>
      <stop offset="1" stop-color="#8b5cf6"/>
    </linearGradient>
  </defs>
  <rect width="800" height="520" fill="url(#bg)"/>
  <rect x="24" y="24" width="752" height="48" rx="12" fill="#fff" stroke="#e2e8f0"/>
  <circle cx="52" cy="48" r="8" fill="#6366f1" opacity="0.9"/>
  <rect x="72" y="40" width="120" height="16" rx="4" fill="#cbd5e1"/>
  <rect x="620" y="36" width="140" height="24" rx="12" fill="url(#accent)" opacity="0.15"/>
  <rect x="24" y="88" width="180" height="408" rx="16" fill="#fff" stroke="#e2e8f0"/>
  <rect x="44" y="112" width="100" height="10" rx="3" fill="#6366f1" opacity="0.5"/>
  <rect x="44" y="140" width="140" height="8" rx="3" fill="#e2e8f0"/>
  <rect x="44" y="164" width="120" height="8" rx="3" fill="#e2e8f0"/>
  <rect x="44" y="188" width="130" height="8" rx="3" fill="#e2e8f0"/>
  <rect x="220" y="88" width="556" height="120" rx="16" fill="#fff" stroke="#e2e8f0"/>
  <rect x="240" y="108" width="200" height="14" rx="4" fill="#1e293b" opacity="0.8"/>
  <rect x="240" y="132" width="280" height="10" rx="3" fill="#94a3b8"/>
  <rect x="240" y="160" width="80" height="32" rx="8" fill="url(#accent)" opacity="0.2"/>
  <rect x="332" y="160" width="80" height="32" rx="8" fill="#e2e8f0"/>
  <rect x="424" y="160" width="80" height="32" rx="8" fill="#e2e8f0"/>
  <rect x="220" y="224" width="268" height="132" rx="16" fill="#fff" stroke="#e2e8f0"/>
  <rect x="240" y="244" width="100" height="10" rx="3" fill="#64748b"/>
  <rect x="240" y="268" width="60" height="24" rx="6" fill="url(#accent)" opacity="0.85"/>
  <rect x="504" y="224" width="272" height="132" rx="16" fill="#fff" stroke="#e2e8f0"/>
  <rect x="524" y="244" width="80" height="10" rx="3" fill="#64748b"/>
  <path d="M524 310 L560 280 L590 295 L640 250 L720 270" stroke="url(#accent)" stroke-width="3" stroke-linecap="round" fill="none"/>
  <rect x="220" y="372" width="556" height="124" rx="16" fill="#fff" stroke="#e2e8f0"/>
  <rect x="240" y="392" width="120" height="10" rx="3" fill="#64748b"/>
  <rect x="240" y="416" width="516" height="8" rx="3" fill="#f1f5f9"/>
  <rect x="240" y="436" width="480" height="8" rx="3" fill="#f1f5f9"/>
  <rect x="240" y="456" width="400" height="8" rx="3" fill="#f1f5f9"/>
</svg>
