<svg xmlns="http://www.w3.org/2000/svg" viewBox="0 0 800 520" fill="none" role="img" aria-label="C@*-#22 mockup">
  <defs>
    <linearGradient id="bg2" x1="0" y1="0" x2="800" y2="520" gradientUnits="userSpaceOnUse">
      <stop stop-color="#fafafa"/>
      <stop offset="1" stop-color="#f0f9ff"/>
    </linearGradient>
    <linearGradient id="accent2" x1="0" y1="0" x2="1" y2="0">
      <stop stop-color="#6366f1"/>
      <stop offset="1" stop-color="#a855f7"/>
    </linearGradient>
  </defs>
  <rect width="800" height="520" fill="url(#bg2)"/>
  <rect x="80" y="40" width="640" height="440" rx="12" fill="#fff" stroke="#e2e8f0" stroke-width="2"/>
  <rect x="120" y="72" width="140" height="48" rx="8" fill="url(#accent2)" opacity="0.15"/>
  <rect x="120" y="140" width="200" height="12" rx="4" fill="#1e293b"/>
  <rect x="120" y="164" width="160" height="8" rx="3" fill="#94a3b8"/>
  <rect x="520" y="140" width="160" height="8" rx="3" fill="#64748b"/>
  <rect x="520" y="160" width="120" height="8" rx="3" fill="#64748b"/>
  <line x1="120" y1="200" x2="680" y2="200" stroke="#e2e8f0" stroke-width="1"/>
  <rect x="120" y="220" width="560" height="28" rx="6" fill="#f8fafc"/>
  <rect x="120" y="260" width="560" height="28" rx="6" fill="#fff" stroke="#f1f5f9"/>
  <rect x="120" y="300" width="560" height="28" rx="6" fill="#fff" stroke="#f1f5f9"/>
  <rect x="120" y="340" width="560" height="28" rx="6" fill="#fff" stroke="#f1f5f9"/>
  <rect x="480" y="400" width="200" height="36" rx="8" fill="url(#accent2)" opacity="0.12"/>
  <rect x="520" y="412" width="120" height="12" rx="4" fill="#6366f1"/>
  <rect x="120" y="420" width="100" height="32" rx="16" fill="url(#accent2)"/>
</svg>
